<?xml version="1.0" encoding="UTF-8" standalone="no"?>
<svg
   xmlns:dc="http://purl.org/dc/elements/1.1/"
   xmlns:cc="http://creativecommons.org/ns#"
   xmlns:rdf="http://www.w3.org/1999/02/22-rdf-syntax-ns#"
   xmlns:svg="http://www.w3.org/2000/svg"
   xmlns="http://www.w3.org/2000/svg"
   xmlns:sodipodi="http://sodipodi.sourceforge.net/DTD/sodipodi-0.dtd"
   xmlns:inkscape="http://www.inkscape.org/namespaces/inkscape"
   version="1.1"
   width="8.413in"
   height="5.607in"
   viewBox=" 0 0 757.1700000000001 504.63"
   id="svg66"
   sodipodi:docname="caseplans.svg"
   inkscape:version="0.92.4 (5da689c313, 2019-01-14)">
  <metadata
     id="metadata72">
    <rdf:RDF>
      <cc:Work
         rdf:about="">
        <dc:format>image/svg+xml</dc:format>
        <dc:type
           rdf:resource="http://purl.org/dc/dcmitype/StillImage" />
        <dc:title></dc:title>
      </cc:Work>
    </rdf:RDF>
  </metadata>
  <defs
     id="defs70" />
  <sodipodi:namedview
     pagecolor="#ffffff"
     bordercolor="#666666"
     borderopacity="1"
     objecttolerance="10"
     gridtolerance="10"
     guidetolerance="10"
     inkscape:pageopacity="0"
     inkscape:pageshadow="2"
     inkscape:window-width="1860"
     inkscape:window-height="892"
     id="namedview68"
     showgrid="true"
     inkscape:zoom="2.3330615"
     inkscape:cx="389.91066"
     inkscape:cy="366.65838"
     inkscape:window-x="11"
     inkscape:window-y="21"
     inkscape:window-maximized="0"
     inkscape:current-layer="svg66">
    <inkscape:grid
       type="xygrid"
       id="grid3777" />
  </sodipodi:namedview>
  <!-- Front-->
  <g
     transform="translate(0,5.3819894)"
     id="g44">
    <polygon
       style="fill:none;stroke:#ff0000;stroke-width:0.89999998"
       points="44.685,0 44.685,10.62 87.57,10.62 87.57,0 115.47,0 115.47,10.62 158.355,10.62 158.355,0 203.04,0 203.04,31.248 192.42,31.248 192.42,60.696 203.04,60.696 203.04,91.944 192.42,91.944 192.42,121.392 203.04,121.392 203.04,152.64 158.355,152.64 158.355,142.02 115.47,142.02 115.47,152.64 87.57,152.64 87.57,142.02 44.685,142.02 44.685,152.64 0,152.64 0,121.392 10.62,121.392 10.62,91.944 0,91.944 0,60.696 10.62,60.696 10.62,31.248 0,31.248 0,0 "
       id="polygon42" />
  </g>
  <!-- Back-->
  <g
     transform="translate(203.04,5.3819894)"
     id="g48">
    <polygon
       style="fill:none;stroke:#ff0000;stroke-width:0.89999998"
       points="44.685,0 44.685,10.62 87.57,10.62 87.57,0 115.47,0 115.47,10.62 158.355,10.62 158.355,0 203.04,0 203.04,31.248 192.42,31.248 192.42,60.696 203.04,60.696 203.04,91.944 192.42,91.944 192.42,121.392 203.04,121.392 203.04,152.64 158.355,152.64 158.355,142.02 115.47,142.02 115.47,152.64 87.57,152.64 87.57,142.02 44.685,142.02 44.685,152.64 0,152.64 0,121.392 10.62,121.392 10.62,91.944 0,91.944 0,60.696 10.62,60.696 10.62,31.248 0,31.248 0,0 "
       id="polygon46" />
  </g>
  <!-- Left-->
  <g
     transform="translate(406.08,5.3819894)"
     id="g52">
    <polygon
       style="fill:none;stroke:#ff0000;stroke-width:0.89999998"
       points="44.1225,0 44.1225,10.62 86.445,10.62 86.445,0 114.345,0 114.345,10.62 140.445,10.62 140.445,0 168.345,0 168.345,10.62 194.445,10.62 194.445,0 222.345,0 222.345,10.62 264.6675,10.62 264.6675,0 298.17,0 298.17,30.348 308.79,30.348 308.79,61.596 298.17,61.596 298.17,91.044 308.79,91.044 308.79,122.292 298.17,122.292 298.17,152.64 264.6675,152.64 264.6675,142.02 222.345,142.02 222.345,152.64 194.445,152.64 194.445,142.02 168.345,142.02 168.345,152.64 140.445,152.64 140.445,142.02 114.345,142.02 114.345,152.64 86.445,152.64 86.445,142.02 44.1225,142.02 44.1225,152.64 10.62,152.64 10.62,122.292 0,122.292 0,91.044 10.62,91.044 10.62,61.596 0,61.596 0,30.348 10.62,30.348 10.62,0 "
       id="polygon50" />
  </g>
  <!-- Right-->
  <g
     transform="translate(406.08,158.02199)"
     id="g56">
    <polygon
       style="fill:none;stroke:#ff0000;stroke-width:0.89999998"
       points="44.1225,0 44.1225,10.62 86.445,10.62 86.445,0 114.345,0 114.345,10.62 140.445,10.62 140.445,0 168.345,0 168.345,10.62 194.445,10.62 194.445,0 222.345,0 222.345,10.62 264.6675,10.62 264.6675,0 298.17,0 298.17,30.348 308.79,30.348 308.79,61.596 298.17,61.596 298.17,91.044 308.79,91.044 308.79,122.292 298.17,122.292 298.17,152.64 264.6675,152.64 264.6675,142.02 222.345,142.02 222.345,152.64 194.445,152.64 194.445,142.02 168.345,142.02 168.345,152.64 140.445,152.64 140.445,142.02 114.345,142.02 114.345,152.64 86.445,152.64 86.445,142.02 44.1225,142.02 44.1225,152.64 10.62,152.64 10.62,122.292 0,122.292 0,91.044 10.62,91.044 10.62,61.596 0,61.596 0,30.348 10.62,30.348 10.62,0 "
       id="polygon54" />
  </g>
  <!-- Top-->
  <g
     transform="translate(0,158.02199)"
     id="g60">
    <polygon
       style="fill:none;stroke:#ff0000;stroke-width:0.89999998"
       points="43.785,10.62 43.785,0 88.47,0 88.47,10.62 114.57,10.62 114.57,0 159.255,0 159.255,10.62 192.42,10.62 192.42,43.2225 203.04,43.2225 203.04,87.345 192.42,87.345 192.42,113.445 203.04,113.445 203.04,141.345 192.42,141.345 192.42,167.445 203.04,167.445 203.04,195.345 192.42,195.345 192.42,221.445 203.04,221.445 203.04,265.5675 192.42,265.5675 192.42,298.17 159.255,298.17 159.255,308.79 114.57,308.79 114.57,298.17 88.47,298.17 88.47,308.79 43.785,308.79 43.785,298.17 10.62,298.17 10.62,265.5675 0,265.5675 0,221.445 10.62,221.445 10.62,195.345 0,195.345 0,167.445 10.62,167.445 10.62,141.345 0,141.345 0,113.445 10.62,113.445 10.62,87.345 0,87.345 0,43.2225 10.62,43.2225 10.62,10.62 "
       id="polygon58" />
  </g>
  <!-- Bottom-->
  <g
     transform="translate(203.04,158.02199)"
     id="g64">
    <polygon
       style="fill:none;stroke:#ff0000;stroke-width:0.89999998"
       points="43.785,10.62 43.785,0 88.47,0 88.47,10.62 114.57,10.62 114.57,0 159.255,0 159.255,10.62 192.42,10.62 192.42,43.2225 203.04,43.2225 203.04,87.345 192.42,87.345 192.42,113.445 203.04,113.445 203.04,141.345 192.42,141.345 192.42,167.445 203.04,167.445 203.04,195.345 192.42,195.345 192.42,221.445 203.04,221.445 203.04,265.5675 192.42,265.5675 192.42,298.17 159.255,298.17 159.255,308.79 114.57,308.79 114.57,298.17 88.47,298.17 88.47,308.79 43.785,308.79 43.785,298.17 10.62,298.17 10.62,265.5675 0,265.5675 0,221.445 10.62,221.445 10.62,195.345 0,195.345 0,167.445 10.62,167.445 10.62,141.345 0,141.345 0,113.445 10.62,113.445 10.62,87.345 0,87.345 0,43.2225 10.62,43.2225 10.62,10.62 "
       id="polygon62" />
  </g>
  <circle
     id="path3779"
     cx="95.919502"
     cy="89.533134"
     style="fill:none;fill-opacity:1;stroke-width:0.125;stroke:#ff0000;stroke-opacity:1;stroke-miterlimit:4;stroke-dasharray:none"
     r="40.5" />
  <rect
     style="fill:none;fill-opacity:1;stroke:#ff0000;stroke-width:1.53246117;stroke-opacity:1"
     id="rect4590"
     width="72"
     height="75.150002"
     x="301.82199"
     y="54.62999" />
  <rect
     style="fill:none;fill-opacity:1;stroke:#ff0000;stroke-width:0.9185586;stroke-opacity:1"
     id="rect4592"
     width="28.800001"
     height="10.8"
     x="250.2"
     y="108.62999"
     inkscape:transform-center-x="-1.2054976" />
</svg>
